<svg width="22" height="22" viewBox="0 0 22 22" fill="none" xmlns="http://www.w3.org/2000/svg">
<path d="M3.66675 17.4166V15.5833H5.50008V9.16658C5.50008 7.89853 5.88203 6.77561 6.64591 5.79784C7.4098 4.80478 8.40286 4.15547 9.62508 3.84992V3.20825C9.62508 2.82631 9.75494 2.50547 10.0147 2.24575C10.2897 1.97075 10.6181 1.83325 11.0001 1.83325C11.382 1.83325 11.7029 1.97075 11.9626 2.24575C12.2376 2.50547 12.3751 2.82631 12.3751 3.20825V3.84992C13.5973 4.15547 14.5904 4.80478 15.3542 5.79784C16.1181 6.77561 16.5001 7.89853 16.5001 9.16658V15.5833H18.3334V17.4166H3.66675ZM11.0001 20.1666C10.4959 20.1666 10.0605 19.9909 9.69383 19.6395C9.34244 19.2728 9.16675 18.8374 9.16675 18.3333H12.8334C12.8334 18.8374 12.6501 19.2728 12.2834 19.6395C11.932 19.9909 11.5042 20.1666 11.0001 20.1666ZM7.33341 15.5833H14.6667V9.16658C14.6667 8.15825 14.3077 7.29506 13.5897 6.577C12.8716 5.85895 12.0084 5.49992 11.0001 5.49992C9.99175 5.49992 9.12855 5.85895 8.4105 6.577C7.69244 7.29506 7.33341 8.15825 7.33341 9.16658V15.5833Z" fill="white"/>
</svg>
