<svg width="31" height="31" viewBox="0 0 31 31" fill="none" xmlns="http://www.w3.org/2000/svg">
<g clip-path="url(#clip0_1_884)">
<path d="M15.5001 19.375C17.6402 19.375 19.3751 17.6401 19.3751 15.5C19.3751 13.3599 17.6402 11.625 15.5001 11.625C13.36 11.625 11.6251 13.3599 11.6251 15.5C11.6251 17.6401 13.36 19.375 15.5001 19.375Z" stroke="white" stroke-width="2.5" stroke-linecap="round" stroke-linejoin="round"/>
<path d="M25.0584 19.375C24.8865 19.7645 24.8352 20.1967 24.9112 20.6157C24.9871 21.0347 25.1869 21.4214 25.4847 21.7258L25.5622 21.8033C25.8024 22.0432 25.9929 22.3281 26.1229 22.6417C26.2529 22.9553 26.3198 23.2915 26.3198 23.631C26.3198 23.9705 26.2529 24.3067 26.1229 24.6203C25.9929 24.9339 25.8024 25.2188 25.5622 25.4587C25.3222 25.6989 25.0373 25.8894 24.7237 26.0194C24.4101 26.1495 24.0739 26.2164 23.7345 26.2164C23.395 26.2164 23.0588 26.1495 22.7452 26.0194C22.4316 25.8894 22.1467 25.6989 21.9067 25.4587L21.8292 25.3812C21.5248 25.0834 21.1382 24.8837 20.7192 24.8077C20.3002 24.7317 19.868 24.783 19.4784 24.955C19.0964 25.1187 18.7706 25.3906 18.5411 25.7371C18.3116 26.0836 18.1884 26.4897 18.1867 26.9054V27.125C18.1867 27.8101 17.9146 28.4672 17.4301 28.9517C16.9456 29.4361 16.2886 29.7083 15.6034 29.7083C14.9183 29.7083 14.2612 29.4361 13.7767 28.9517C13.2923 28.4672 13.0201 27.8101 13.0201 27.125V27.0087C13.0101 26.5812 12.8717 26.1665 12.6229 25.8187C12.3741 25.4709 12.0264 25.2059 11.6251 25.0583C11.2355 24.8864 10.8033 24.8351 10.3843 24.911C9.96531 24.987 9.57867 25.1868 9.27425 25.4845L9.19675 25.562C8.95683 25.8022 8.67191 25.9928 8.3583 26.1228C8.04469 26.2528 7.70853 26.3197 7.36904 26.3197C7.02955 26.3197 6.69339 26.2528 6.37978 26.1228C6.06617 25.9928 5.78125 25.8022 5.54133 25.562C5.30114 25.3221 5.1106 25.0372 4.98059 24.7236C4.85059 24.41 4.78367 24.0738 4.78367 23.7343C4.78367 23.3948 4.85059 23.0587 4.98059 22.7451C5.1106 22.4315 5.30114 22.1465 5.54133 21.9066L5.61883 21.8291C5.91661 21.5247 6.11636 21.1381 6.19234 20.7191C6.26831 20.3 6.21702 19.8679 6.04508 19.4783C5.88135 19.0963 5.60947 18.7704 5.26293 18.5409C4.91639 18.3114 4.51031 18.1883 4.09466 18.1866H3.87508C3.18994 18.1866 2.53286 17.9145 2.04839 17.43C1.56392 16.9455 1.29175 16.2884 1.29175 15.6033C1.29175 14.9181 1.56392 14.2611 2.04839 13.7766C2.53286 13.2921 3.18994 13.02 3.87508 13.02H3.99133C4.41887 13.01 4.8335 12.8716 5.18134 12.6228C5.52918 12.374 5.79413 12.0263 5.94175 11.625C6.11369 11.2354 6.16498 10.8032 6.089 10.3842C6.01303 9.96519 5.81327 9.57854 5.5155 9.27413L5.438 9.19663C5.19781 8.9567 5.00726 8.67179 4.87726 8.35818C4.74726 8.04457 4.68034 7.70841 4.68034 7.36892C4.68034 7.02943 4.74726 6.69327 4.87726 6.37965C5.00726 6.06604 5.19781 5.78113 5.438 5.54121C5.67792 5.30102 5.96283 5.11048 6.27644 4.98047C6.59006 4.85047 6.92622 4.78355 7.26571 4.78355C7.6052 4.78355 7.94136 4.85047 8.25497 4.98047C8.56858 5.11048 8.85349 5.30102 9.09341 5.54121L9.17091 5.61871C9.47533 5.91649 9.86198 6.11624 10.281 6.19221C10.7 6.26819 11.1322 6.2169 11.5217 6.04496H11.6251C12.0071 5.88122 12.3329 5.60935 12.5624 5.26281C12.7919 4.91627 12.9151 4.51018 12.9167 4.09454V3.87496C12.9167 3.18982 13.1889 2.53274 13.6734 2.04827C14.1579 1.5638 14.8149 1.29163 15.5001 1.29163C16.1852 1.29163 16.8423 1.5638 17.3268 2.04827C17.8112 2.53274 18.0834 3.18982 18.0834 3.87496V3.99121C18.0851 4.40685 18.2082 4.81294 18.4377 5.15948C18.6672 5.50602 18.993 5.77789 19.3751 5.94163C19.7647 6.11357 20.1968 6.16486 20.6158 6.08888C21.0349 6.01291 21.4215 5.81315 21.7259 5.51538L21.8034 5.43788C22.0433 5.19769 22.3282 5.00714 22.6419 4.87714C22.9555 4.74713 23.2916 4.68022 23.6311 4.68022C23.9706 4.68022 24.3068 4.74713 24.6204 4.87714C24.934 5.00714 25.2189 5.19769 25.4588 5.43788C25.699 5.6778 25.8896 5.96271 26.0196 6.27632C26.1496 6.58993 26.2165 6.92609 26.2165 7.26558C26.2165 7.60507 26.1496 7.94123 26.0196 8.25485C25.8896 8.56846 25.699 8.85337 25.4588 9.09329L25.3813 9.17079C25.0836 9.47521 24.8838 9.86185 24.8078 10.2809C24.7319 10.6999 24.7831 11.132 24.9551 11.5216V11.625C25.1188 12.007 25.3907 12.3328 25.7372 12.5623C26.0838 12.7918 26.4899 12.915 26.9055 12.9166H27.1251C27.8102 12.9166 28.4673 13.1888 28.9518 13.6733C29.4362 14.1577 29.7084 14.8148 29.7084 15.5C29.7084 16.1851 29.4362 16.8422 28.9518 17.3267C28.4673 17.8111 27.8102 18.0833 27.1251 18.0833H27.0088C26.5932 18.0849 26.1871 18.2081 25.8406 18.4376C25.494 18.6671 25.2221 18.9929 25.0584 19.375Z" stroke="white" stroke-width="2.5" stroke-linecap="round" stroke-linejoin="round"/>
</g>
<defs>
<clipPath id="clip0_1_884">
<rect width="31" height="31" fill="white"/>
</clipPath>
</defs>
</svg>
